<?xml version="1.0" encoding="utf-8" ?>
<svg xmlns="http://www.w3.org/2000/svg" xmlns:ev="http://www.w3.org/2001/xml-events" xmlns:xlink="http://www.w3.org/1999/xlink" baseProfile="full" height="500px" version="1.1" viewBox="0 0 800 500" width="800px">
  <defs>
    <clipPath id="page">
      <rect height="500" width="800" x="0" y="0"/>
    </clipPath>
  </defs>
  <g clip-path="url(#page)"/>
  <g clip-path="url(#page)">
    <polygon fill="#000000" opacity="0.0" points="252.49448391096666,91.99657774227671 657.5011384887621,388.99314727354795 142.49886151077226,437.00342225749046 252.49448391096666,91.99657774227671"/>
    <polyline fill="none" opacity="1.0" points="252.49448391096666,91.99657774227671 657.5011384887621,388.99314727354795 142.49886151077226,437.00342225749046 252.49448391096666,91.99657774227671" stroke="#ff0000" stroke-width="2"/>
    <g clip-path="url(#page)" transform="translate(-4194304, 0)"/>
    <polygon fill="#000000" opacity="0.0" points="252.49448391096666,91.99657774227671 657.5011384887621,388.99314727354795 142.49886151077226,437.00342225749046 252.49448391096666,91.99657774227671"/>
    <polyline fill="none" opacity="1.0" points="252.49448391096666,91.99657774227671 657.5011384887621,388.99314727354795 142.49886151077226,437.00342225749046 252.49448391096666,91.99657774227671" stroke="#ff0000" stroke-width="2"/>
    <g clip-path="url(#page)" transform="translate(0, 0)"/>
    <polygon fill="#000000" opacity="0.0" points="252.49448391096666,91.99657774227671 657.5011384887621,388.99314727354795 142.49886151077226,437.00342225749046 252.49448391096666,91.99657774227671"/>
    <polyline fill="none" opacity="1.0" points="252.49448391096666,91.99657774227671 657.5011384887621,388.99314727354795 142.49886151077226,437.00342225749046 252.49448391096666,91.99657774227671" stroke="#ff0000" stroke-width="2"/>
    <g clip-path="url(#page)" transform="translate(4194304, 0)"/>
    <path d="M 252.49448391096666 91.99657774227671  l -8.660254037844386 -15.0  a 10 10 0 1 1 17.32050807568877 0 Z" fill="#0000ff" opacity="1.0" stroke="#ffffff" stroke-width="1"/>
    <g clip-path="url(#page)" transform="translate(-4194304, 0)"/>
    <path d="M 252.49448391096666 91.99657774227671  l -8.660254037844386 -15.0  a 10 10 0 1 1 17.32050807568877 0 Z" fill="#0000ff" opacity="1.0" stroke="#ffffff" stroke-width="1"/>
    <g clip-path="url(#page)" transform="translate(0, 0)"/>
    <path d="M 252.49448391096666 91.99657774227671  l -8.660254037844386 -15.0  a 10 10 0 1 1 17.32050807568877 0 Z" fill="#0000ff" opacity="1.0" stroke="#ffffff" stroke-width="1"/>
    <g clip-path="url(#page)" transform="translate(4194304, 0)"/>
    <path d="M 657.5011384887621 388.99314727354795  l -8.660254037844386 -15.0  a 10 10 0 1 1 17.32050807568877 0 Z" fill="#00ff00" opacity="1.0" stroke="#000000" stroke-width="1"/>
    <g clip-path="url(#page)" transform="translate(-4194304, 0)"/>
    <path d="M 657.5011384887621 388.99314727354795  l -8.660254037844386 -15.0  a 10 10 0 1 1 17.32050807568877 0 Z" fill="#00ff00" opacity="1.0" stroke="#000000" stroke-width="1"/>
    <g clip-path="url(#page)" transform="translate(0, 0)"/>
    <path d="M 657.5011384887621 388.99314727354795  l -8.660254037844386 -15.0  a 10 10 0 1 1 17.32050807568877 0 Z" fill="#00ff00" opacity="1.0" stroke="#000000" stroke-width="1"/>
    <g clip-path="url(#page)" transform="translate(4194304, 0)"/>
    <path d="M 142.49886151077226 437.00342225749046  l -8.660254037844386 -15.0  a 10 10 0 1 1 17.32050807568877 0 Z" fill="#ffff00" opacity="1.0" stroke="#000000" stroke-width="1"/>
    <g clip-path="url(#page)" transform="translate(-4194304, 0)"/>
    <path d="M 142.49886151077226 437.00342225749046  l -8.660254037844386 -15.0  a 10 10 0 1 1 17.32050807568877 0 Z" fill="#ffff00" opacity="1.0" stroke="#000000" stroke-width="1"/>
    <g clip-path="url(#page)" transform="translate(0, 0)"/>
    <path d="M 142.49886151077226 437.00342225749046  l -8.660254037844386 -15.0  a 10 10 0 1 1 17.32050807568877 0 Z" fill="#ffff00" opacity="1.0" stroke="#000000" stroke-width="1"/>
    <g clip-path="url(#page)" transform="translate(4194304, 0)"/>
  </g>
  <g clip-path="url(#page)">
    <rect fill="#ffffff" fill-opacity="0.8" height="12" width="800" x="0" y="488"/>
    <text fill="#000000" font-family="Arial, Helvetica, sans-serif" font-size="9px" x="2" y="497">Maps (C) Jawg Maps (C) OpenStreetMap.org contributors</text>
  </g>
</svg>
